<svg width="44" height="33" fill="none" xmlns="http://www.w3.org/2000/svg"><path fill-rule="evenodd" clip-rule="evenodd" d="M17.286 32.067a15.75 15.75 0 01-12.683-4.504A15.61 15.61 0 010 16.5 15.61 15.61 0 014.602 5.437 15.75 15.75 0 0117.286.934v4.693a11.047 11.047 0 00-1.572-.078 11.025 11.025 0 00-7.778 3.207A10.927 10.927 0 004.714 16.5c0 2.905 1.16 5.69 3.222 7.744a11.025 11.025 0 007.778 3.207c.525.012 1.05-.014 1.572-.078v4.694zm26.714 0a15.75 15.75 0 01-12.683-4.504A15.61 15.61 0 0126.713 16.5a15.61 15.61 0 014.602-11.063A15.75 15.75 0 0144 .934v4.693a11.049 11.049 0 00-1.572-.078 11.03 11.03 0 00-6.895 2.418 10.945 10.945 0 00-3.85 6.186h9.174v4.694h-9.174a10.945 10.945 0 003.85 6.187 11.031 11.031 0 006.895 2.418c.525.01 1.05-.015 1.572-.079v4.694z" fill="#fff"/></svg>