<svg width="31" height="31" fill="none" xmlns="http://www.w3.org/2000/svg"><mask id="path-1-outside-1_1:26" maskUnits="userSpaceOnUse" x="0" y="0" width="31" height="32" fill="#000"><path fill="#fff" d="M0 0h31v32H0z"/><path fill-rule="evenodd" clip-rule="evenodd" d="M16.207 24.907l6.364-6.364a1 1 0 00-1.414-1.414L16.5 21.786V1h-2v20.786l-4.657-4.657a1 1 0 00-1.414 1.414l6.364 6.364a1 1 0 001.414 0zM1 26v-8.325h2V26a2 2 0 002 2h21a2 2 0 002-2v-8.325h2V26a4 4 0 01-4 4H5a4 4 0 01-4-4z"/></mask><path fill-rule="evenodd" clip-rule="evenodd" d="M16.207 24.907l6.364-6.364a1 1 0 00-1.414-1.414L16.5 21.786V1h-2v20.786l-4.657-4.657a1 1 0 00-1.414 1.414l6.364 6.364a1 1 0 001.414 0zM1 26v-8.325h2V26a2 2 0 002 2h21a2 2 0 002-2v-8.325h2V26a4 4 0 01-4 4H5a4 4 0 01-4-4z" fill="#fff"/><path d="M22.57 17.129l.708-.707-.707.707zm-1.413 0l-.707-.707.707.707zM16.5 21.786h-1V24.2l1.707-1.707-.707-.707zM16.5 1h1V0h-1v1zm-2 0V0h-1v1h1zm0 20.786l-.707.707L15.5 24.2v-2.414h-1zm-4.657-4.657l.707-.707-.707.707zm-1.414 1.414l.707-.707-.707.707zm6.364 6.364l-.707.707.707-.707zM1 17.675v-1H0v1h1zm2 0h1v-1H3v1zm25 0v-1h-1v1h1zm2 0h1v-1h-1v1zm-8.136.161L15.5 24.2l1.414 1.414 6.364-6.364-1.414-1.414zm0 0l1.414 1.414a2 2 0 000-2.828l-1.414 1.414zm0 0l1.414-1.414a2 2 0 00-2.828 0l1.414 1.414zm-4.657 4.657l4.657-4.657-1.415-1.414-4.656 4.657 1.414 1.414zM15.5 1v20.786h2V1h-2zm-1 1h2V0h-2v2zm1 19.786V1h-2v20.786h2zm-6.364-3.95l4.657 4.657 1.414-1.414-4.657-4.657-1.414 1.414zm0 0l1.414-1.414a2 2 0 00-2.828 0l1.414 1.414zm0 0l-1.414-1.414a2 2 0 000 2.828l1.414-1.414zM15.5 24.2l-6.364-6.364-1.414 1.414 6.363 6.364L15.5 24.2zm0 0l-1.415 1.414a2 2 0 002.829 0L15.5 24.2zM0 17.675V26h2v-8.325H0zm3-1H1v2h2v-2zM4 26v-8.325H2V26h2zm1 1a1 1 0 01-1-1H2a3 3 0 003 3v-2zm21 0H5v2h21v-2zm1-1a1 1 0 01-1 1v2a3 3 0 003-3h-2zm0-8.325V26h2v-8.325h-2zm3-1h-2v2h2v-2zM31 26v-8.325h-2V26h2zm-5 5a5 5 0 005-5h-2a3 3 0 01-3 3v2zM5 31h21v-2H5v2zm-5-5a5 5 0 005 5v-2a3 3 0 01-3-3H0z" fill="#fff" mask="url(#path-1-outside-1_1:26)"/></svg>