<svg width="257" height="57" fill="none" xmlns="http://www.w3.org/2000/svg"><path d="M87.4 0v11.4h-19v11.4h19v11.4h-19v11.4h19V57h151.9l17.1-28.5L239.3 0H87.4zM0 57h15.865l5.605-11.4H39.9V57h14.25V0H27.835L0 57zm39.9-42.085V34.2H26.98l9.405-19.285H39.9z" fill="#5BBD73"/><path d="M101.94 35H98.9V21.7h3.04V35zm15.207-13.3V35h-2.432l-6.308-7.98V35h-2.85V21.7h2.432l6.308 8.018V21.7h2.85zm8.303 9.652c0-.557-.652-1.146-1.957-1.767-.38-.165-.715-.317-1.007-.456a9.626 9.626 0 01-.95-.608 5.306 5.306 0 01-.855-.817 4.275 4.275 0 01-.57-1.045 3.647 3.647 0 01-.209-1.349c0-1.064.393-1.97 1.178-2.717.786-.747 1.824-1.121 3.116-1.121 1.698 0 3.002.488 3.914 1.463l-1.634 2.28c-.367-.342-.69-.576-.969-.703-.266-.127-.614-.19-1.045-.19-.418 0-.747.089-.988.266a.866.866 0 00-.342.722c0 .342.133.646.399.912.279.266.621.488 1.026.665.418.165.868.374 1.349.627.482.253.925.526 1.33.817.418.279.76.678 1.026 1.197.279.507.418 1.102.418 1.786 0 1.14-.437 2.077-1.311 2.812-.848.735-1.931 1.102-3.249 1.102a6.523 6.523 0 01-2.736-.589c-.874-.393-1.463-.925-1.767-1.596l1.729-2.071c.342.443.773.792 1.292 1.045a3.68 3.68 0 001.558.361c.393 0 .697-.089.912-.266a.94.94 0 00.342-.76zm8.164-6.802h-3.99V21.7h11.02v2.85h-3.99V35h-3.04V24.55zm11.962 5.795V35h-3.04V21.7c.722 0 1.52-.006 2.394-.019a148.13 148.13 0 012.128-.019c3.281 0 4.921 1.419 4.921 4.256 0 1.824-.747 3.103-2.242 3.838L153.613 35h-3.686l-3.23-4.655h-1.121zm1.33-5.833a2.79 2.79 0 00-.171.019 9 9 0 00-.475.019h-.684v2.945h1.102c1.381 0 2.071-.513 2.071-1.539 0-.963-.614-1.444-1.843-1.444zm16.413-2.812h3.04v7.809c0 1.913-.519 3.344-1.558 4.294-1.026.95-2.318 1.425-3.876 1.425-1.773 0-3.179-.5-4.218-1.501-1.051-1.013-1.577-2.464-1.577-4.351V21.7h3.04v7.03c0 2.432.919 3.648 2.755 3.648.849 0 1.457-.285 1.824-.855.38-.57.57-1.444.57-2.622V21.7zm15.466 9.709l1.159 2.28c-.405.456-1.007.83-1.805 1.121a7.501 7.501 0 01-2.527.418c-2.065 0-3.743-.627-5.035-1.881-1.292-1.28-1.938-2.945-1.938-4.997 0-2.001.608-3.648 1.824-4.94 1.216-1.292 2.926-1.938 5.13-1.938.836 0 1.615.127 2.337.38.722.253 1.298.589 1.729 1.007l-1.349 2.28c-.887-.545-1.792-.817-2.717-.817-1.077 0-1.97.355-2.679 1.064-.697.697-1.045 1.685-1.045 2.964 0 1.165.374 2.134 1.121 2.907.747.747 1.716 1.121 2.907 1.121a4.696 4.696 0 002.888-.969zm5.724-6.859h-3.99V21.7h11.02v2.85h-3.99V35h-3.04V24.55zM196.662 35h-3.04V21.7h3.04V35zm2.666-6.65c0-1.963.653-3.597 1.957-4.902 1.318-1.317 3.021-1.976 5.111-1.976 2.078 0 3.769.627 5.073 1.881 1.33 1.254 1.995 2.92 1.995 4.997 0 2.001-.671 3.648-2.014 4.94-1.33 1.292-3.014 1.938-5.054 1.938-2.064 0-3.762-.627-5.092-1.881-1.317-1.254-1.976-2.92-1.976-4.997zm3.23 0c0 1.127.374 2.084 1.121 2.869.735.773 1.641 1.159 2.717 1.159 1.216 0 2.16-.374 2.831-1.121.672-.773 1.007-1.742 1.007-2.907 0-1.203-.367-2.172-1.102-2.907-.747-.747-1.659-1.121-2.736-1.121-1.114 0-2.033.374-2.755 1.121s-1.083 1.716-1.083 2.907zm24.971-6.65V35h-2.432l-6.308-7.98V35h-2.85V21.7h2.432l6.308 8.018V21.7h2.85zm8.303 9.652c0-.557-.652-1.146-1.957-1.767-.38-.165-.715-.317-1.007-.456a9.626 9.626 0 01-.95-.608 5.306 5.306 0 01-.855-.817 4.275 4.275 0 01-.57-1.045 3.647 3.647 0 01-.209-1.349c0-1.064.393-1.97 1.178-2.717.786-.747 1.824-1.121 3.116-1.121 1.698 0 3.002.488 3.914 1.463l-1.634 2.28c-.367-.342-.69-.576-.969-.703-.266-.127-.614-.19-1.045-.19-.418 0-.747.089-.988.266a.866.866 0 00-.342.722c0 .342.133.646.399.912.279.266.621.488 1.026.665.418.165.868.374 1.349.627.482.253.925.526 1.33.817.418.279.76.678 1.026 1.197.279.507.418 1.102.418 1.786 0 1.14-.437 2.077-1.311 2.812-.848.735-1.931 1.102-3.249 1.102a6.523 6.523 0 01-2.736-.589c-.874-.393-1.463-.925-1.767-1.596l1.729-2.071c.342.443.773.792 1.292 1.045a3.68 3.68 0 001.558.361c.393 0 .697-.089.912-.266a.94.94 0 00.342-.76z" fill="#fff"/></svg>